<?xml version="1.0" standalone="no"?>
<!DOCTYPE svg PUBLIC "-//W3C//DTD SVG 20010904//EN"
	"http://www.w3.org/TR/2001/REC-SVG-20010904/DTD/svg10.dtd">
<svg height="48.000000pt" preserveAspectRatio="xMidYMid meet"
	 version="1.0" viewBox="0 0 48.000000 48.000000" width="48.000000pt"
	 xmlns="http://www.w3.org/2000/svg">

	<g fill="#007AAE"
	   stroke="none" transform="translate(0.000000,48.000000) scale(0.100000,-0.100000)">
		<path d="M0 240 l0 -240 240 0 240 0 0 240 0 240 -240 0 -240 0 0 -240z m402
6 c26 -66 48 -121 48 -123 0 -2 -12 -3 -26 -3 -19 0 -28 7 -37 30 -10 27 -16
30 -55 30 -39 0 -44 -3 -53 -30 -9 -24 -17 -30 -40 -30 l-29 0 21 53 c12 28
30 75 41 102 11 28 24 60 29 73 6 16 16 22 31 20 18 -2 31 -26 70 -122z m-229
36 c9 -10 18 -33 19 -52 l3 -35 -57 -5 c-48 -4 -56 -7 -48 -20 6 -10 24 -14
55 -13 38 1 45 -2 45 -17 0 -12 -10 -21 -30 -25 -95 -21 -159 59 -115 145 17
33 27 38 76 39 23 1 42 -6 52 -17z" />
		<path d="M320 266 c-15 -40 -13 -46 14 -46 24 0 24 2 14 33 -15 43 -16 44 -28
13z" />
		<path d="M86 245 c-4 -11 2 -15 24 -15 20 0 30 5 30 15 0 9 -9 15 -24 15 -13
0 -26 -7 -30 -15z" />
	</g>
</svg>
